<?xml version="1.0" encoding="iso-8859-1"?>
<!-- Generator: Adobe Illustrator 16.0.0, SVG Export Plug-In . SVG Version: 6.00 Build 0)  -->
<!DOCTYPE svg PUBLIC "-//W3C//DTD SVG 1.1//EN" "http://www.w3.org/Graphics/SVG/1.1/DTD/svg11.dtd">
<svg version="1.1" id="Capa_1" xmlns="http://www.w3.org/2000/svg" xmlns:xlink="http://www.w3.org/1999/xlink" x="0px" y="0px"
	 width="515.5px" height="515.5px" viewBox="0 0 515.5 515.5" style="enable-background:new 0 0 515.5 515.5;" xml:space="preserve"
	>
<g>
	<path d="M364.35,201c12.9-4.5,23.601-17.4,27.801-33.9c5.699-22.8-2.7-44-19.301-50.4c1.5-6,2.2-12.3,2.2-18.7
		c0-54.1-54-98-120.7-98c-66.7,0-120.7,43.9-120.7,98c0,7.7,1.2,15.2,3.2,22.4c-11.9,9-17.2,27.2-12.4,46.7
		c4.1,16.6,15,29.5,27.8,33.9c15,49.4,53.6,100.7,106,100.7C310.65,301.7,349.35,250.4,364.35,201z M258.35,284.1
		c-42.8,0-77.8-46.6-90.399-92.699l-1.6-5.6l-5.7-0.8c-6.9-0.9-15.7-8.8-19-22.2c-2.4-9.4-1-18.9,2.7-24.8c1.8-2.8,4.1-4.9,6.9-5.6
		c0.6-0.1,1.1-0.2,1.9-0.2c0.4,0,1,0,1.5,0.1l8.3,0.8l1.2-8.2c2.6-17.1,8-32.6,15.5-45.7c14,15.8,42.1,26.7,74.5,26.7
		c36.5,0,67.5-13.8,79.1-32.9c9.6,14.4,16.5,32,19.5,52.1l1.2,8.2l8.3-0.8c1.2-0.1,2.5-0.1,3.4,0.1c0.6,0.1,1,0.4,1.6,0.7
		c7.6,3.4,11.3,16.6,8.1,29.7c-3.399,13.3-12.1,21.3-19,22.2l-5.8,0.8l-1.6,5.6C336.35,237.4,301.15,284.1,258.35,284.1z
		 M293.85,312l-24.199,11.9c-2.101-4.6-5.9-7.7-10.4-7.7c-4.7,0-8.6,3.5-10.8,8.399l-25.5-12.5c-11.6-5.699-21.2,1-21.2,15.101
		c0,4.601,1.1,8.5,3,11.601c3,5,8,7.699,13.9,7.399c1.6-0.101,3.2-0.3,5-1l24.1-8.2c1.7,6,6.2,10.4,11.4,10.4
		c5.199,0,9.5-4.1,11.3-9.9l22.6,7.6c3,1,5.9,1.201,8.5,0.9c3.2-0.4,5.9-2.1,8.2-4.4c3.2-3.399,5.3-8.299,5.3-14.6
		C315.05,313.1,305.55,306.301,293.85,312z M362.85,310.5c-11.399,19.4-24.5,35.7-42,44.7c-36,18.399-62.7,33.4-62.7,33.4
		l-0.1-0.101v-0.3l-0.3,0.2l-0.3-0.2v0.3l-0.1,0.101c0,0-26.8-14.9-62.7-33.4c-17.5-9-30.6-25.3-42-44.7
		c-53.3,21.6-90.4,71.5-90.4,114.8c0,45.801,0,90.2,0,90.2h195h0.8h195.2c0,0,0-44.399,0-90.2
		C453.25,381.9,416.05,332.1,362.85,310.5z"/>
</g>
<g>
</g>
<g>
</g>
<g>
</g>
<g>
</g>
<g>
</g>
<g>
</g>
<g>
</g>
<g>
</g>
<g>
</g>
<g>
</g>
<g>
</g>
<g>
</g>
<g>
</g>
<g>
</g>
<g>
</g>
</svg>
