<svg id="Capa_1" enable-background="new 0 0 512 512" height="512" viewBox="0 0 512 512" width="512" xmlns="http://www.w3.org/2000/svg"><g><path d="m200.403 215.919v8.016c0 4.142 3.358 7.5 7.5 7.5s7.5-3.358 7.5-7.5v-8.016c0-4.142-3.358-7.5-7.5-7.5s-7.5 3.358-7.5 7.5z"/><path d="m296.597 215.919v8.016c0 4.142 3.358 7.5 7.5 7.5s7.5-3.358 7.5-7.5v-8.016c0-4.142-3.358-7.5-7.5-7.5s-7.5 3.358-7.5 7.5z"/><path d="m223.195 182.036c-1.004-4.019-5.079-6.463-9.095-5.457l-32.064 8.016c-4.019 1.004-6.462 5.077-5.457 9.095.852 3.408 3.91 5.683 7.27 5.683.602 0 1.214-.073 1.825-.226l32.064-8.016c4.019-1.005 6.462-5.077 5.457-9.095z"/><path d="m328.151 199.373c3.36 0 6.418-2.275 7.27-5.683 1.005-4.018-1.438-8.09-5.457-9.095l-32.064-8.016c-4.014-1.005-8.09 1.438-9.095 5.457-1.005 4.018 1.438 8.09 5.457 9.095l32.064 8.016c.611.153 1.222.226 1.825.226z"/><path d="m436.14 450.229-83.258-26.018c-10.31-3.222-17.237-12.644-17.237-23.446v-16.507c0-4.142-3.358-7.5-7.5-7.5s-7.5 3.358-7.5 7.5v16.507c0 12.468 5.731 23.793 15.089 31.121-21.084 21.083-49.745 33.05-79.734 33.05-29.93 0-58.662-11.974-79.741-33.044 9.363-7.328 15.096-18.656 15.096-31.126v-42.617c19.424 11.448 41.639 17.578 64.645 17.578 32.622 0 63.66-12.309 87.395-34.658 21.895-20.616 35.679-47.944 39.271-77.568h9.609c8.614 0 16.955-3.584 22.886-9.834 6.015-6.338 9.076-14.649 8.618-23.4-.569-10.867-6.852-20.201-15.988-25.419v-117.187c0-48.336-39.325-87.661-87.662-87.661h-104.21c-15.966 0-30.148 9.639-36.281 24.048h-11.816c-35.077 0-63.613 28.537-63.613 63.613v91.464c0 4.142 3.358 7.5 7.5 7.5s7.5-3.358 7.5-7.5v-91.464c0-26.805 21.808-48.613 48.613-48.613h17.166c3.418 0 6.403-2.311 7.26-5.62 2.811-10.85 12.545-18.428 23.671-18.428h104.209c40.066 0 72.662 32.596 72.662 72.661v112.797c-.622-.033-1.247-.055-1.877-.055h-6.655c-9.125 0-16.549-7.423-16.549-16.548v-40.081c0-21.816-17.749-39.565-39.564-39.565-4.142 0-7.5 3.358-7.5 7.5s3.358 7.5 7.5 7.5c13.545 0 24.564 11.02 24.564 24.565v40.081c0 11.758 6.47 22.026 16.032 27.452v20.644c0 9.125-7.423 16.548-16.548 16.548h-192.386c-9.125 0-16.548-7.423-16.548-16.548v-20.644c9.562-5.426 16.032-15.695 16.032-27.452v-40.081c0-13.545 11.02-24.565 24.564-24.565h112.223c4.142 0 7.5-3.358 7.5-7.5s-3.358-7.5-7.5-7.5h-112.223c-21.816 0-39.564 17.749-39.564 39.565v40.081c0 9.125-7.424 16.548-16.549 16.548h-6.655c-17.552 0-31.988 13.117-32.865 29.863-.458 8.751 2.603 17.062 8.618 23.4 5.931 6.25 14.272 9.834 22.886 9.834h9.609c3.592 29.624 17.376 56.952 39.271 77.568 2.503 2.357 5.091 4.594 7.75 6.725v52.972c0 10.802-6.927 20.225-17.237 23.446l-83.259 26.018c-16.606 5.189-27.764 20.365-27.764 37.763v16.508c0 4.142 3.358 7.5 7.5 7.5s7.5-3.358 7.5-7.5v-16.507c0-10.802 6.927-20.224 17.238-23.446l48.758-15.237c14.235 18.562 32.585 33.995 53.291 44.759 22.563 11.731 48.019 17.931 73.617 17.931 25.459 0 50.792-6.137 73.261-17.746 20.846-10.771 39.328-26.279 53.641-44.946l48.763 15.239c10.31 3.222 17.237 12.644 17.237 23.446v16.507c0 4.142 3.358 7.5 7.5 7.5s7.5-3.358 7.5-7.5v-16.507c.001-17.398-11.156-32.574-27.762-37.764zm-52.398-234.838c.011-.001.01 0 0 0zm0 16.561v-16.548h7.172c9.41 0 17.433 7.019 17.885 15.647.241 4.601-1.364 8.966-4.519 12.29-3.158 3.327-7.421 5.16-12.006 5.16h-13.236c2.979-4.815 4.704-10.484 4.704-16.549zm-264.016 16.548c-4.584 0-8.848-1.833-12.006-5.16-3.155-3.324-4.759-7.689-4.519-12.29.452-8.628 8.475-15.647 17.885-15.647h7.172v16.548c0 6.065 1.725 11.734 4.703 16.548h-13.235zm24.737 15h223.073c-.807 5.847-2.068 11.545-3.737 17.064h-139.863c-4.142 0-7.5 3.358-7.5 7.5s3.358 7.5 7.5 7.5h120.794c-21.314 15.676-53.927 25.081-88.73 25.081-34.805 0-67.416-9.405-88.73-25.081h24.603c4.142 0 7.5-3.358 7.5-7.5s-3.358-7.5-7.5-7.5h-43.673c-1.668-5.519-2.929-11.217-3.737-17.064zm17.859 46.948c23.799 15.997 57.289 25.197 93.678 25.197 36.388 0 69.879-9.201 93.678-25.198-20.297 30.368-54.887 50.278-93.678 50.278s-73.381-19.91-93.678-50.277zm160.053 170.479c-20.64 10.665-42.972 16.073-66.375 16.073-43.105 0-84.163-19.47-111.557-52.487l17.808-5.565c24.139 26.066 58.194 40.988 93.75 40.988 35.626 0 69.606-14.897 93.76-40.984l17.801 5.563c-12.443 14.995-27.926 27.494-45.187 36.412z"/></g></svg>