<?xml version="1.0" standalone="no"?>
<!DOCTYPE svg PUBLIC "-//W3C//DTD SVG 20010904//EN"
 "http://www.w3.org/TR/2001/REC-SVG-20010904/DTD/svg10.dtd">
<svg version="1.0" xmlns="http://www.w3.org/2000/svg"
 width="1280.000000pt" height="1280.000000pt" viewBox="0 0 1280.000000 1280.000000"
 preserveAspectRatio="xMidYMid meet">
<metadata>
Created by potrace 1.16, written by Peter Selinger 2001-2019
</metadata>
<g transform="translate(0.000000,1280.000000) scale(0.100000,-0.100000)"
fill="#000000" stroke="none">
<path d="M3320 7940 l0 -1090 -387 0 c-427 0 -479 -6 -588 -59 -37 -19 -250
-183 -565 -436 -278 -224 -530 -419 -560 -435 -107 -54 -144 -60 -392 -60
l-229 0 3 -687 3 -688 28 -57 c30 -61 74 -105 140 -140 l42 -23 608 -3 607 -3
0 -57 c0 -149 66 -385 152 -539 178 -322 488 -547 858 -620 115 -23 344 -23
463 1 304 59 578 231 765 481 127 170 222 424 238 638 l7 97 2333 0 2332 0 7
-77 c31 -361 184 -657 455 -882 276 -230 670 -327 1030 -255 494 100 883 496
975 993 8 46 15 109 15 140 0 31 4 61 8 68 6 9 118 13 462 15 450 3 456 3 501
26 61 30 116 86 145 147 l24 50 0 812 0 813 -5227 2 -5227 3 408 327 c225 181
432 339 462 354 97 47 152 53 502 54 l322 0 0 1090 0 1090 -360 0 -360 0 0
-1090z m103 -3075 c327 -85 530 -425 447 -749 -45 -179 -163 -327 -321 -405
-187 -92 -370 -93 -554 -2 -303 150 -429 511 -286 816 78 166 228 292 402 339
72 19 240 20 312 1z m7157 0 c170 -45 321 -169 397 -325 51 -105 66 -171 66
-280 -1 -173 -60 -310 -187 -435 -95 -94 -187 -145 -308 -169 -97 -20 -149
-20 -246 0 -111 22 -206 71 -289 149 -120 110 -184 233 -204 388 -38 295 163
591 456 672 68 18 246 18 315 0z"/>
<path d="M5720 7940 l0 -1090 360 0 360 0 0 1090 0 1090 -360 0 -360 0 0
-1090z"/>
<path d="M8120 7940 l0 -1090 363 2 362 3 3 1088 2 1087 -365 0 -365 0 0
-1090z"/>
<path d="M10520 7940 l0 -1090 365 0 365 0 0 1090 0 1090 -365 0 -365 0 0
-1090z"/>
<path d="M11930 7940 l0 -1090 435 0 435 0 0 1090 0 1090 -435 0 -435 0 0
-1090z"/>
</g>
</svg>
