<svg id="Capa_1" enable-background="new 0 0 512 512" height="512" viewBox="0 0 512 512" width="512" xmlns="http://www.w3.org/2000/svg"><g><path d="m0 265.31v64.219c0 6.567 5.373 11.94 11.94 11.94h33.633 98.92 187.288 98.92 45.133c6.567 0 11.94-5.373 11.94-11.94v-52.595c0-3.885-.16-7.762-.461-11.624z" fill="#ff4756"/><path d="m35.013 329.529v-64.219h-35.013v64.219c0 6.567 5.373 11.94 11.94 11.94h33.633 1.38c-6.567.001-11.94-5.372-11.94-11.94z" fill="#fc2d39"/><path d="m387.196 240.7c-3.854-3.095-8.65-4.783-13.594-4.783h-373.602v31.423h419.87z" fill="#ffd301"/><path d="m0 235.917h35.013v31.423h-35.013z" fill="#ffc20c"/><path d="m478.204 224.233-22.134-75.455h-456.07v89.169h373.603c4.943 0 9.739 1.687 13.594 4.783l37.549 30.156c3.854 3.096 8.65 4.783 13.594 4.783h49.435v-.734c0-18-3.243-35.852-9.571-52.702z" fill="#23a8fe"/><path d="m422.209 242.73c-3.855-3.095-8.65-4.783-13.594-4.783h-35.013c4.943 0 9.739 1.687 13.594 4.783l37.549 30.156c3.854 3.096 8.65 4.783 13.594 4.783h35.013c-4.944 0-9.739-1.687-13.594-4.783z" fill="#0193fa"/><path d="m0 148.778h35.013v89.169h-35.013z" fill="#0193fa"/><path d="m11.941 121.07c-6.567 0-11.94 5.373-11.94 11.94v17.797h456.666l-2.452-8.359c-4.83-12.86-17.128-21.378-30.866-21.378z" fill="#ffd301"/><path d="m46.953 121.07h-35.013c-6.567 0-11.94 5.373-11.94 11.94v17.797h35.013v-17.797c0-6.567 5.373-11.94 11.94-11.94z" fill="#ffc20c"/><g fill="#665e68"><path d="m350.477 237.947h23.126c1.944 0 3.862.27 5.712.775v-87.914h-28.838z"/><path d="m254.39 150.808h28.838v87.139h-28.838z"/><path d="m158.302 150.808h28.838v87.139h-28.838z"/><path d="m62.215 150.808h28.838v87.139h-28.838z"/></g><path d="m350.477 150.808h17.929v87.139h-17.929z" fill="#554e56"/><path d="m254.39 150.808h17.929v87.139h-17.929z" fill="#554e56"/><path d="m158.303 150.808h17.929v87.139h-17.929z" fill="#554e56"/><path d="m62.215 150.808h17.929v87.139h-17.929z" fill="#554e56"/><g><path d="m497.137 206.973-9.942-31.057h-25.396c-4.204 0-7.611-3.408-7.611-7.611 0-4.204 3.408-7.611 7.611-7.611h30.951c3.31 0 6.24 2.139 7.249 5.291l11.637 36.348c1.281 4.003-.925 8.288-4.929 9.57-3.978 1.272-8.279-.9-9.57-4.93z" fill="#dfebfa"/></g><circle cx="381.241" cy="341.47" fill="#665e68" r="49.46"/><path d="m358.44 341.47c0-22.695 15.292-41.807 36.131-47.628-4.242-1.185-8.709-1.832-13.329-1.832-27.316 0-49.46 22.144-49.46 49.46s22.144 49.46 49.46 49.46c4.62 0 9.087-.647 13.329-1.832-20.839-5.821-36.131-24.933-36.131-47.628z" fill="#554e56"/><circle cx="381.241" cy="341.47" fill="#dfebfa" r="24.73"/><path d="m383.17 341.47c0-8.748 4.546-16.429 11.401-20.825-3.847-2.468-8.419-3.904-13.329-3.904-13.658 0-24.73 11.072-24.73 24.73s11.072 24.73 24.73 24.73c4.91 0 9.482-1.437 13.329-3.905-6.855-4.397-11.401-12.078-11.401-20.826z" fill="#b1dbfc"/><circle cx="95.033" cy="341.47" fill="#665e68" r="49.46"/><path d="m72.232 341.47c0-22.695 15.292-41.807 36.131-47.628-4.242-1.185-8.709-1.832-13.329-1.832-27.316 0-49.46 22.144-49.46 49.46s22.144 49.46 49.46 49.46c4.62 0 9.087-.647 13.329-1.832-20.839-5.821-36.131-24.933-36.131-47.628z" fill="#554e56"/><circle cx="95.033" cy="341.47" fill="#dfebfa" r="24.73"/><path d="m96.962 341.47c0-8.748 4.546-16.429 11.401-20.825-3.847-2.468-8.419-3.904-13.329-3.904-13.658 0-24.73 11.072-24.73 24.73s11.072 24.73 24.73 24.73c4.91 0 9.482-1.437 13.329-3.905-6.855-4.397-11.401-12.078-11.401-20.826z" fill="#b1dbfc"/></g></svg>